With: Halle Berry, Olivier Martinez and Ralph Brown

De duikinstructrice Kate Mathieson (Halle Berry), die een bijna-doodervaring heeft gehad met een grote witte haai, keert terug naar de diepe wateren met een kleine groep marinebiologen en toeristen. De uitstap wordt echter problematisch wanneer ze schipbreuk lijden op een klein rotseilandje dat omgeven wordt door grote witte haaien en ze een manier moeten vinden om te ontsnappen.

A professional diver tutor Brady returns to deep waters after nine years following an almost fatal encounter with a great white shark, bringing a happy couple Kate and Jeff. However, before they know it they discover that the nightmare from the deep is still lurking in the deep, more carnivorous and hungry than ever. 

------------------------ Dutch Friends ------------------------
---------------------------------------------------------------
- Bezoek ook eens mijn vrienden op:  http://www.Film-Test.nl --
----- voor mijn Nederlandse Sync. ondertitels ---- en meer ----
------- http://www.Film-Test.nl ---- voor Films en meer -------
---------------------------------------------------------------

General:

Complete name                    : Dark TideDark Tide.avi
Format                           : AVI
Format/Info                      : Audio Video Interleave
File size                        : 1.73 GiB
Duration                         : 1h 53mn
Overall bit rate                 : 2 175 Kbps

Video:

Format                           : MPEG-4 Visual
Format profile                   : Simple@L3
Format settings, BVOP            : No
Format settings, QPel            : No
Format settings, GMC             : No warppoints
Format settings, Matrix          : Default (H.263)
Codec ID                         : XVID
Codec ID/Hint                    : XviD
Duration                         : 1h 53mn
Bit rate                         : 1 781 Kbps
Width                            : 720 pixels
Height                           : 304 pixels
Display aspect ratio             : 2.35:1
Frame rate                       : 25.000 fps
Color space                      : YUV
Chroma subsampling               : 4:2:0
Bit depth                        : 8 bits
Scan type                        : Progressive
Compression mode                 : Lossy
Bits/(Pixel*Frame)               : 0.325
Stream size                      : 1.41 GiB (82%)
Writing library                  : XviD 1.1.2 (UTC 2006-11-01)

Audio:

Format                           : AC-3
Format/Info                      : Audio Coding 3
Mode extension                   : CM (complete main)
Codec ID                         : 2000
Duration                         : 1h 53mn
Bit rate mode                    : Constant
Bit rate                         : 384 Kbps
Channel(s)                       : 6 channels
Channel positions                : Front: L C R, Side: L R, LFE
Sampling rate                    : 48.0 KHz
Bit depth                        : 16 bits
Compression mode                 : Lossy
Stream size                      : 312 MiB (18%)
Alignment                        : Aligned on interleaves
Interleave, duration             : 32 ms (0.80 video frame)

